<svg width="557" height="161" viewBox="0 0 557 161" fill="none" xmlns="http://www.w3.org/2000/svg">
<path d="M46.8692 34.5951H71.5444C76.7214 34.5951 80.9182 38.8696 80.9182 44.1424V69.2744C80.9182 72.0913 79.7205 74.6232 77.8155 76.3707C74.7341 79.1973 70.4735 76.333 68.8208 72.4919C65.1894 64.0519 53.2242 64.0519 49.5927 72.4919C47.94 76.333 43.6794 79.1973 40.5981 76.3707C38.693 74.6232 37.4953 72.0913 37.4953 69.2744V44.1424C37.4953 38.8696 41.6921 34.5951 46.8692 34.5951Z" fill="#D9FF00"/>
<path fill-rule="evenodd" clip-rule="evenodd" d="M94.2897 0C107.385 0 118 10.8119 118 24.1492V90.419C118 91.7754 117.888 93.1053 117.677 94.4007C117.41 98.7776 115.794 102.213 112.028 106.747L72.0996 155.566C64.8156 162.811 53.1844 162.811 45.9004 155.566L5.97225 106.747C1.9299 102.494 0.589543 98.7776 0.322519 94.4007C0.111499 93.1053 0 91.7754 0 90.419V24.1492C0 10.8119 10.6154 0 23.7103 0H94.2897ZM99.2523 30.8885C99.2523 22.5139 92.5868 15.725 84.3645 15.725H33.0841C24.8618 15.725 18.1963 22.5139 18.1963 30.8885V83.1181C18.1963 91.4926 24.8618 98.2815 33.0841 98.2815H84.3645C92.5868 98.2815 99.2523 91.4926 99.2523 83.1181V30.8885Z" fill="#FBFBFB"/>
<path d="M193.776 42.353C191.642 42.353 189.812 41.5946 188.287 40.0779C186.762 38.5611 186 36.7409 186 34.6174V34.0107C186 31.8872 186.762 30.0671 188.287 28.5503C189.812 27.0336 191.642 26.2752 193.776 26.2752H194.691C196.826 26.2752 198.655 27.0336 200.18 28.5503C201.705 30.0671 202.467 31.8872 202.467 34.0107V34.6174C202.467 36.7409 201.705 38.5611 200.18 40.0779C198.655 41.5946 196.826 42.353 194.691 42.353H193.776ZM194.081 136.242C192.15 136.242 190.523 135.584 189.202 134.27C187.881 132.955 187.22 131.337 187.22 129.416V64.3463C187.22 62.3239 187.881 60.6555 189.202 59.3409C190.523 58.0264 192.15 57.3691 194.081 57.3691C196.114 57.3691 197.791 58.0264 199.113 59.3409C200.434 60.6555 201.095 62.3239 201.095 64.3463V129.416C201.095 131.337 200.434 132.955 199.113 134.27C197.791 135.584 196.114 136.242 194.081 136.242Z" fill="#FBFBFB"/>
<path d="M233.307 135.483C231.375 135.483 229.749 134.826 228.427 133.511C227.106 132.197 226.445 130.579 226.445 128.658V36.5893C226.445 34.668 227.106 33.0501 228.427 31.7356C229.749 30.3199 231.375 29.6121 233.307 29.6121H269.291C280.472 29.6121 288.96 32.1401 294.754 37.196C300.548 42.2519 303.445 48.8752 303.445 57.0658C303.445 63.3351 301.92 68.391 298.871 72.2336C295.821 75.9749 292.365 78.7052 288.502 80.4242C292.162 81.5365 295.567 83.2049 298.718 85.4295C301.971 87.6541 304.563 90.4349 306.494 93.7718C308.426 97.1087 309.391 101.103 309.391 105.754C309.391 111.619 308.07 116.827 305.427 121.377C302.886 125.826 298.718 129.315 292.924 131.843C287.232 134.27 279.659 135.483 270.205 135.483H233.307ZM240.32 75.4188H265.631C272.035 75.4188 277.016 74.6604 280.574 73.1436C284.131 71.6268 286.622 69.5539 288.045 66.9248C289.468 64.2957 290.18 61.3633 290.18 58.1275C290.18 53.3749 288.248 49.583 284.386 46.7517C280.523 43.9204 275.135 42.5047 268.223 42.5047H240.32V75.4188ZM240.32 122.591H268.833C275.847 122.591 281.285 121.883 285.148 120.467C289.112 118.95 291.908 116.877 293.534 114.248C295.16 111.619 295.974 108.586 295.974 105.148C295.974 99.1817 293.636 94.8336 288.96 92.1034C284.386 89.272 277.728 87.8564 268.986 87.8564H240.32V122.591Z" fill="#FBFBFB"/>
<path d="M349.242 137C344.871 137 340.754 136.09 336.892 134.27C333.131 132.45 330.081 129.871 327.743 126.534C325.507 123.096 324.389 119.001 324.389 114.248C324.389 107.069 327.235 101.204 332.927 96.6537C338.721 92.0022 347.565 89.6765 359.458 89.6765H377.907V88.4631C377.907 81.6881 376.23 76.885 372.876 74.0537C369.521 71.1212 364.388 69.655 357.476 69.655C353.207 69.655 349.446 70.0595 346.193 70.8685C343.042 71.5763 340.043 72.3852 337.197 73.2953C336.384 73.4975 335.723 73.5986 335.215 73.5986C333.69 73.5986 332.368 73.0425 331.25 71.9302C330.132 70.8179 329.573 69.4528 329.573 67.8349C329.573 65.1047 330.894 63.1834 333.537 62.0711C337.095 60.5544 341.009 59.2904 345.278 58.2792C349.649 57.1669 354.528 56.6107 359.915 56.6107C367.336 56.6107 373.384 58.0769 378.06 61.0094C382.736 63.9418 386.192 67.6832 388.428 72.2336C390.665 76.7839 391.783 81.5365 391.783 86.4913V129.416C391.783 131.337 391.071 132.955 389.648 134.27C388.327 135.584 386.7 136.242 384.769 136.242C382.837 136.242 381.211 135.584 379.89 134.27C378.568 132.955 377.907 131.337 377.907 129.416V125.472C375.163 128.304 371.504 130.933 366.929 133.36C362.355 135.787 356.459 137 349.242 137ZM354.426 124.866C359.204 124.866 363.677 123.703 367.844 121.377C372.012 119.051 375.366 116.422 377.907 113.49V100.749H361.288C354.172 100.749 348.531 101.659 344.363 103.479C340.297 105.299 338.264 108.383 338.264 112.732C338.264 115.967 339.382 118.799 341.618 121.225C343.956 123.652 348.226 124.866 354.426 124.866Z" fill="#FBFBFB"/>
<path d="M421.9 136.242C419.969 136.242 418.342 135.584 417.021 134.27C415.699 132.955 415.039 131.337 415.039 129.416V30.9772C415.039 28.9548 415.699 27.2864 417.021 25.9718C418.342 24.6573 419.969 24 421.9 24C423.933 24 425.61 24.6573 426.932 25.9718C428.253 27.2864 428.914 28.9548 428.914 30.9772V129.416C428.914 131.337 428.253 132.955 426.932 134.27C425.61 135.584 423.933 136.242 421.9 136.242Z" fill="#FBFBFB"/>
<path d="M459.565 42.353C457.43 42.353 455.601 41.5946 454.076 40.0779C452.551 38.5611 451.789 36.7409 451.789 34.6174V34.0107C451.789 31.8872 452.551 30.0671 454.076 28.5503C455.601 27.0336 457.43 26.2752 459.565 26.2752H460.48C462.614 26.2752 464.444 27.0336 465.969 28.5503C467.494 30.0671 468.256 31.8872 468.256 34.0107V34.6174C468.256 36.7409 467.494 38.5611 465.969 40.0779C464.444 41.5946 462.614 42.353 460.48 42.353H459.565ZM459.87 136.242C457.939 136.242 456.312 135.584 454.991 134.27C453.669 132.955 453.009 131.337 453.009 129.416V64.3463C453.009 62.3239 453.669 60.6555 454.991 59.3409C456.312 58.0264 457.939 57.3691 459.87 57.3691C461.903 57.3691 463.58 58.0264 464.902 59.3409C466.223 60.6555 466.884 62.3239 466.884 64.3463V129.416C466.884 131.337 466.223 132.955 464.902 134.27C463.58 135.584 461.903 136.242 459.87 136.242Z" fill="#FBFBFB"/>
<path d="M497.84 136.242C495.908 136.242 494.282 135.584 492.961 134.27C491.639 132.955 490.978 131.337 490.978 129.416V30.9772C490.978 29.0559 491.639 27.438 492.961 26.1235C494.282 24.7078 495.908 24 497.84 24C499.771 24 501.397 24.7078 502.719 26.1235C504.142 27.438 504.854 29.0559 504.854 30.9772V93.0134L541.143 59.6443C541.753 59.1387 542.413 58.6837 543.125 58.2792C543.938 57.8747 544.802 57.6725 545.717 57.6725C548.36 57.6725 550.139 58.4309 551.053 59.9477C551.968 61.3633 552.426 62.8295 552.426 64.3463C552.426 64.953 552.273 65.7114 551.968 66.6215C551.663 67.4304 550.952 68.391 549.834 69.5033L527.877 89.0698L555.475 125.472C556.492 126.787 557 128.152 557 129.568C557 131.59 556.339 133.208 555.018 134.421C553.696 135.635 552.019 136.242 549.986 136.242C547.851 136.242 545.971 135.281 544.345 133.36L518.119 97.8671L504.854 109.85V129.416C504.854 131.337 504.142 132.955 502.719 134.27C501.397 135.584 499.771 136.242 497.84 136.242Z" fill="#FBFBFB"/>
<path fill-rule="evenodd" clip-rule="evenodd" d="M118.5 24.1492C118.5 10.8119 107.885 0 94.7897 0H24.2103C11.1154 0 0.5 10.8119 0.5 24.1492V90.419C0.5 91.7754 0.611499 93.1053 0.822519 94.4007C1.08954 98.7776 2.4299 102.494 6.47225 106.747L46.4004 155.566C53.6844 162.811 65.3156 162.811 72.5996 155.566L112.528 106.747C116.294 102.213 117.91 98.7776 118.177 94.4007C118.388 93.1053 118.5 91.7754 118.5 90.419V24.1492ZM99.7523 30.8885C99.7523 22.5139 93.0868 15.725 84.8645 15.725H33.5841C25.3618 15.725 18.6963 22.5139 18.6963 30.8885V83.1181C18.6963 91.4926 25.3618 98.2815 33.5841 98.2815H84.8645C93.0868 98.2815 99.7523 91.4926 99.7523 83.1181V30.8885ZM47.3692 34.5951H72.0444C77.2214 34.5951 81.4182 38.8696 81.4182 44.1424V69.2744C81.4182 72.0913 80.2205 74.6232 78.3155 76.3707C75.2341 79.1973 70.9735 76.333 69.3208 72.4919C65.6894 64.0519 53.7242 64.0519 50.0927 72.4919C48.44 76.333 44.1794 79.1973 41.0981 76.3707C39.193 74.6232 37.9953 72.0913 37.9953 69.2744V44.1424C37.9953 38.8696 42.1921 34.5951 47.3692 34.5951Z" fill="url(#paint0_linear_240_8)"/>
<defs>
<linearGradient id="paint0_linear_240_8" x1="20.6037" y1="147.438" x2="139.636" y2="-6.87813" gradientUnits="userSpaceOnUse">
<stop stop-color="#D9FF00"/>
<stop offset="0.639428" stop-color="#52DAC0"/>
<stop offset="0.9999" stop-color="#1500FF"/>
</linearGradient>
</defs>
</svg>
