<svg width="135" height="184" viewBox="0 0 135 184" fill="none" xmlns="http://www.w3.org/2000/svg">
<path fill-rule="evenodd" clip-rule="evenodd" d="M81.8517 39.5372H53.6215C47.6986 39.5372 42.8972 44.4224 42.8972 50.4485V79.1708C42.8972 82.39 44.2674 85.2837 46.4469 87.2808C49.9722 90.5112 54.8466 87.2377 56.7374 82.8478C60.892 73.2022 74.5811 73.2022 78.7357 82.8478C80.6265 87.2377 85.5009 90.5112 89.0262 87.2808C91.2057 85.2837 92.5759 82.39 92.5759 79.1708V50.4485C92.5759 44.4224 87.7745 39.5372 81.8517 39.5372Z" fill="#1500FF"/>
<path fill-rule="evenodd" clip-rule="evenodd" d="M107.874 0C122.855 0 135 12.3565 135 27.599V103.336C135 104.886 134.872 106.406 134.63 107.887C134.325 112.889 132.477 116.815 128.167 121.996L82.4868 177.789C74.1534 186.07 60.8466 186.07 52.5132 177.789L6.83266 121.996C2.20793 117.136 0.674478 112.889 0.368984 107.887C0.127562 106.406 0 104.886 0 103.336V27.599C0 12.3565 12.1448 0 27.1261 0H107.874ZM113.551 35.3011C113.551 25.7302 105.926 17.9715 96.5187 17.9715H37.8505C28.4435 17.9715 20.8177 25.7302 20.8177 35.3011V94.9921C20.8177 104.563 28.4435 112.322 37.8505 112.322H96.5187C105.926 112.322 113.551 104.563 113.551 94.9921V35.3011Z" fill="#000E1B"/>
</svg>
